0.06m3min_grf.mot
version=1
nRows=15
nColumns 19
inDegrees=yes
endheader
time	1_ground_force_vx	1_ground_force_vy	1_ground_force_vz	1_ground_force_px	1_ground_force_py	1_ground_force_pz	1_ground_torque_x	1_ground_torque_y	1_ground_torque_z	2_ground_force_vx	2_ground_force_vy	2_ground_force_vz	2_ground_force_px	2_ground_force_py	2_ground_force_pz	2_ground_torque_x	2_ground_torque_y	2_ground_torque_z
            3.751500	            1.702688	          148.199954	           -4.321387	           -0.146097	            0.006244	           -0.406460	           -0.003749	           -0.326282	            0.009514	            9.446389	          213.079576	            5.495612	           -0.153650	            0.005678	           -0.627400	           -0.002725	           -0.061476	           -0.001586
            3.752000	            1.703523	          145.495379	           -4.195414	           -0.146026	            0.006246	           -0.406908	           -0.003891	           -0.332321	            0.009583	            9.133020	          209.027479	            5.387440	           -0.153030	            0.005678	           -0.626814	           -0.002244	           -0.051369	           -0.001324
            3.752500	            1.932842	          142.431693	           -4.392546	           -0.145653	            0.006244	           -0.406405	           -0.003918	           -0.288711	            0.008904	            9.098236	          205.711788	            5.610273	           -0.153220	            0.005675	           -0.626035	           -0.001820	           -0.041143	           -0.001122
            3.753000	            1.704382	          139.547005	           -4.312633	           -0.145118	            0.006245	           -0.406672	           -0.003313	           -0.271250	            0.008383	            9.153123	          203.501675	            5.743153	           -0.153017	            0.005678	           -0.626815	            0.000306	            0.006799	            0.000192
            3.753500	            1.429359	          138.105219	           -4.409846	           -0.146975	            0.006241	           -0.405818	           -0.001708	           -0.165035	            0.005270	            8.788937	          200.554116	            5.685871	           -0.152801	            0.005678	           -0.626664	            0.003103	            0.070814	            0.002008
            3.754000	            1.568068	          134.138615	           -4.243769	           -0.144506	            0.006242	           -0.405878	           -0.001532	           -0.131028	            0.004145	            8.988259	          197.240472	            5.580109	           -0.152219	            0.005679	           -0.626256	           -0.001086	           -0.023833	           -0.000674
            3.754500	            1.614764	          130.713183	           -4.166857	           -0.144764	            0.006247	           -0.407213	           -0.002076	           -0.168030	            0.005356	            8.855705	          195.030018	            5.619212	           -0.153154	            0.005680	           -0.627363	            0.000684	            0.015058	            0.000434
            3.755000	            1.477791	          128.910106	           -4.082534	           -0.145207	            0.006242	           -0.405968	           -0.003448	           -0.300794	            0.009526	            8.913874	          191.899506	            5.654950	           -0.152642	            0.005679	           -0.626557	           -0.002014	           -0.043360	           -0.001278
            3.755500	            1.249867	          126.204701	           -3.772568	           -0.145169	            0.006241	           -0.405810	           -0.002678	           -0.270405	            0.008083	            9.019455	          188.585828	            5.455371	           -0.152832	            0.005674	           -0.625427	           -0.005641	           -0.117944	           -0.003412
            3.756000	            1.020103	          124.223307	           -4.147349	           -0.145540	            0.006237	           -0.404865	           -0.003067	           -0.373528	            0.012471	            8.420375	          185.821397	            5.445774	           -0.152388	            0.005679	           -0.626325	            0.003012	            0.066472	            0.001948
            3.756500	            0.975305	          122.239196	           -3.880602	           -0.145462	            0.006234	           -0.404114	           -0.001744	           -0.218624	            0.006940	            8.714891	          182.138441	            5.714082	           -0.152210	            0.005676	           -0.625248	           -0.000782	           -0.016352	           -0.000513
            3.757000	            1.067682	          118.453634	           -3.897062	           -0.144822	            0.006242	           -0.406015	           -0.001271	           -0.141008	            0.004639	            8.485170	          180.849584	            5.428013	           -0.152905	            0.005679	           -0.626852	            0.003660	            0.078004	            0.002341
            3.757500	            0.885047	          116.289821	           -3.768315	           -0.144864	            0.006240	           -0.405541	           -0.001263	           -0.165961	            0.005378	            8.589545	          177.903214	            5.511317	           -0.152540	            0.005678	           -0.626287	            0.002111	            0.043721	            0.001354
            3.758000	            1.022563	          114.487781	           -3.913953	           -0.144929	            0.006232	           -0.403705	           -0.002412	           -0.270046	            0.009232	            8.317003	          175.508918	            5.315182	           -0.153278	            0.005678	           -0.627100	            0.001619	            0.034165	            0.001035
            3.758500	            0.610746	          112.143657	           -3.785410	           -0.145951	            0.006236	           -0.404572	           -0.001963	           -0.360440	            0.012167	            8.237322	          171.640970	            5.442208	           -0.152160	            0.005676	           -0.625397	            0.002184	            0.045504	            0.001443
